<svg xmlns="http://www.w3.org/2000/svg" width="300" height="417" viewBox="0 0 300 417" font-family="Inter, Segoe UI, Arial, sans-serif" font-size="11">
<rect width="100%" height="100%" fill="#ffffff"/>
<text x="8" y="16" font-weight="600" font-size="13" fill="#1b1f24">Boscombe Surf Reef</text>
<text x="8" y="32" fill="#5a626d">195 × 128 m · 10,862 m² · medium confidence</text>
<g transform="translate(0,40)">
<rect x="0" y="0" width="257" height="318.8" fill="#e6f1f7"/>
<rect x="0" y="318.8" width="257" height="24" fill="#efe3c4"/>
<line x1="0" x2="257" y1="318.8" y2="318.8" stroke="#7a6a45" stroke-width="1.5"/>
<text x="241" y="333.8" text-anchor="end" fill="#5a626d">beach · shoreline (y = 0)</text>
<line x1="20" x2="20" y1="314.8" y2="278.8" stroke="#3d5a73" stroke-width="1.5"/><path d="M16 282.8l4 -7l4 7z" fill="#3d5a73"/>
<text x="16" y="18" fill="#5a626d">↑ offshore (sea)</text>
<g fill="#9b1c1c" fill-opacity=".9" stroke="#1b1f24" stroke-width="1" stroke-linejoin="round"><path d="M54.0 45.0L31.0 98.2L203.0 172.6L226.0 119.4L54.0 45.0Z"/></g>
<line x1="203.0" x2="203.0" y1="318.8" y2="172.6" stroke="#3d5a73" stroke-dasharray="3 3"/><text x="207.0" y="249.7" fill="#1b1f24">146 m</text>
<rect x="141.0" y="360" width="50.0" height="5" fill="#1b1f24"/><rect x="191.0" y="360" width="50.0" height="5" fill="#ffffff" stroke="#1b1f24" stroke-width=".8"/><text x="141.0" y="356" fill="#1b1f24">0</text><text x="241" y="356" text-anchor="end" fill="#1b1f24">100 m</text>
<text x="16" y="370" fill="#5a626d">1 px = 1 m</text>
</g>
</svg>
