<svg xmlns="http://www.w3.org/2000/svg" width="300" height="257" viewBox="0 0 300 257" font-family="Inter, Segoe UI, Arial, sans-serif" font-size="11">
<rect width="100%" height="100%" fill="#ffffff"/>
<text x="8" y="16" font-weight="600" font-size="13" fill="#1b1f24">Pratte's Reef (permit name: Chevron Reef)</text>
<text x="8" y="32" fill="#5a626d">58 × 31 m · 324 m² · medium confidence</text>
<g transform="translate(0,40)">
<rect x="0" y="0" width="182" height="159.1" fill="#e6f1f7"/>
<rect x="0" y="159.1" width="182" height="24" fill="#efe3c4"/>
<line x1="0" x2="182" y1="159.1" y2="159.1" stroke="#7a6a45" stroke-width="1.5"/>
<text x="166" y="174.1" text-anchor="end" fill="#5a626d">beach · shoreline (y = 0)</text>
<line x1="20" x2="20" y1="155.1" y2="119.1" stroke="#3d5a73" stroke-width="1.5"/><path d="M16 123.1l4 -7l4 7z" fill="#3d5a73"/>
<text x="16" y="18" fill="#5a626d">↑ offshore (sea)</text>
<g fill="#9b1c1c" fill-opacity=".9" stroke="#1b1f24" stroke-width="1" stroke-linejoin="round"><path d="M64.7 76.2L62.1 73.1L96.1 45.0L97.4 46.5L98.9 45.2L119.9 69.8L116.9 72.4L99.9 52.5L99.7 54.7L93.7 54.2L93.9 52.0L64.7 76.2Z"/></g>
<line x1="64.7" x2="64.7" y1="159.1" y2="76.2" stroke="#3d5a73" stroke-dasharray="3 3"/><text x="68.7" y="121.6" fill="#1b1f24">83 m</text>
<rect x="66.0" y="200" width="50.0" height="5" fill="#1b1f24"/><rect x="116.0" y="200" width="50.0" height="5" fill="#ffffff" stroke="#1b1f24" stroke-width=".8"/><text x="66.0" y="196" fill="#1b1f24">0</text><text x="166" y="196" text-anchor="end" fill="#1b1f24">100 m</text>
<text x="16" y="210" fill="#5a626d">1 px = 1 m</text>
</g>
</svg>
